<?xml version="1.0" encoding="utf-8"?>
<!-- Generator: Adobe Illustrator 14.0.0, SVG Export Plug-In . SVG Version: 6.00 Build 43363)  -->
<!DOCTYPE svg PUBLIC "-//W3C//DTD SVG 1.1//EN" "http://www.w3.org/Graphics/SVG/1.1/DTD/svg11.dtd">
<svg version="1.1" id="Layer_1" xmlns="http://www.w3.org/2000/svg" xmlns:xlink="http://www.w3.org/1999/xlink" x="0px" y="0px"
	 width="98.828px" height="50px" viewBox="0 0 98.828 50" enable-background="new 0 0 98.828 50" xml:space="preserve">
<g>
	<defs>
		<path id="SVGID_1_" d="M98.74,35.06c0.043-0.08,0.015-0.22-0.055-0.266C70.17,14.828,30.824,14.277,0.911,32.114
			c-0.082,0.112-0.073,0.314,0.039,0.392c0.577-0.023,1.066,0.079,1.659-0.444c0.458-0.709,1.02-0.774,1.603-0.625
			c0.058,0.17,0.046,0.359-0.056,0.478c-0.318,0.124-0.602-0.163-0.923,0.05c-0.252,0.43-0.857,0.5-1.268,0.732
			c-0.261,0.197-0.521,0.393-0.781,0.59c-0.151-0.081-0.375-0.109-0.563-0.03c-0.286,0.13-0.537,0.386-0.555,0.658
			c0.267,0.074,0.481-0.312,0.679-0.092c-0.028,0.219-0.612,0.228-0.587,0.502c0.066,0.181,0.404-0.072,0.526,0.048
			c0.095,0.094-0.155,0.384,0,0.476c0.06,0.045,0.262,0.082,0.391-0.016c0.258-0.042,0.32-0.366,0.604-0.448
			c0.262-0.02,0.493,0.023,0.752-0.057c-0.091-0.235,0.09-0.284,0.121-0.427c1.055-0.009,0.505-0.609,1.683-0.994
			c0.414-0.203,1.047,0.245,1.215-0.58c1.127,0.421,1.265-0.555,2.021-0.786c0.594,0.6,0.82-0.228,1.104,0.123
			c-0.003,0.285-0.183,0.476-0.741,0.527c-0.407,0.037-1.477,0.543-2.188,1.288c-0.762-0.012-1.101,0.066-0.98,0.476
			c0.618,0.678,1.048-0.262,1.57-0.394c0.631-0.051,0.924-0.757,1.433-0.904c0.342-0.06,0.405,0.534,0.75,0.38
			c0.436-0.109,0.241-0.417,0.45-0.603c0.146-0.134,0.519-0.044,0.682-0.274c0.238-0.334,0.644-0.362,0.815-0.29
			c0.179,0.341-0.548,0.327-0.876,1.03c-0.318,0.455-1.026,0.72-0.943,0.933c0.07,0.136,0.207,0.096,0.395,0.025
			c0.274-0.104,0.699-0.375,1.049-0.775c0.385-0.536,0.936-0.607,1.229-0.865c0.308-0.272,0.32-0.584,0.415-0.597
			c0.086-0.01,0.202-0.055,0.262,0.267c0.027,0.159,0.352-0.017,0.49,0.088c0.092,0.073,0.052,0.405-0.145,0.646
			c-0.145,0.178-0.742-0.147-1.008,0.06c-0.5,0.387-0.569,1-1.366,1.36c-0.155,0.068-0.956,0.59-0.296,0.608
			c0.049,0.001,0.085-0.209,0.246-0.273c0.162-0.065,0.414,0.103,0.63-0.156c0.372-0.45,0.717-0.279,0.811-0.325
			c0.154-0.072-0.017-0.571,0.25-0.654c0.309-0.099,0.805-0.58,0.865-0.149c0.013,0.087-0.291,0.493-0.065,0.49
			c0.468-0.007,0.804-0.276,1.19-0.245c0.23,0.02-0.036-0.445,0.203-0.5c0.261-0.06,0.542,0.195,0.837,0.144
			c0.347-0.06,0.347-0.66,0.732-0.738c0.343-0.068,0.223,0.327,0.611,0.304c0.404-0.025,0.788-0.469,1.296-0.407
			c0.725,0.086,0.763-0.19,1.213-0.521c0.328-0.243,0.403,0.166,0.853-0.109c0.665-0.406,0.452,0.183,0.934,0.085
			c0.142-0.029-0.079-0.387,0.162-0.444c0.229-0.055,0.278,0.361,1.086-0.482c0.561-0.475,0.381,0.292,0.888,0.275
			c0.23-0.008,0.109-0.56,0.399-0.664c0.442-0.16,0.456,0.412,0.8,0.371c0.343-0.04,0.404-0.39,0.72-0.252
			c0.367,0.161,0.257-0.573,0.86-0.389c0.687,0.229,0.693-0.332,1.167-0.462c0.314-0.085,0.236,0.329,0.493,0.343
			c0.337,0.02,0.176-0.372,0.693-0.393c0.225-0.012,0.041-0.196,0.254-0.29c0.194-0.087,0.471,0.131,0.812,0.074
			c0.202-0.035,0.297-0.286,0.499-0.382c0.221-0.106,0.509,0.045,0.68-0.021c0.303-0.117,0.075,0.347,0.33,0.333
			c0.303-0.02,0.474-0.638,0.714-0.684c0.347-0.07,0.031,0.556,0.358,0.557c0.249,0.001,0.655-0.578,0.877-0.686
			c0.108-0.054,0.319,0.066,0.459,0.064c0.14-0.001,0.229-0.112,0.329-0.062c0.138,0.071,0.142,0.19,0.285,0.188
			c0.294-0.001,0.299-0.46,0.549-0.46c0.242,0,0.042,0.575,0.452,0.59c0.459,0.019,0.57-0.316,0.968-0.4
			c0.164-0.035,0.601-0.343,0.758-0.251c0.139,0.081,0.103,0.504,0.238,0.479c0.259-0.051,0.238-0.665,0.465-0.693
			c0.087-0.011,0.367-0.116,0.509,0.016c0.144,0.132-0.187,0.484,0.23,0.483c0.534-0.002,0.376-0.584,1.489-0.799
			c0.229-0.045,0.596-0.123,0.913-0.126c0.217,0,0.414,0.072,0.515,0.065c0.457-0.031,1.151-0.484,1.183-0.208
			c0.03,0.286-1.324,0.496-1.144,0.849c0.214,0.414,1.109-0.512,1.558-0.561c0.928-0.238,0.705,0.342,1.52,0.265
			c1.052-0.102,0.907-1.015,1.53-1.116c0.724-0.106-0.03,0.459,0.519,0.594c1.028,0.373,1.559-0.439,2.577-0.393
			c0.39-0.116,0.815-0.364,1.172-0.349c0.23,0.212-0.226,0.587,0.395,0.634c0.383-0.047,0.865-0.027,1.146-0.205
			c0.162-0.413,0.423-0.728,0.849-0.746c0.694-0.187,0.665,0.271,0.437,0.479c-0.19,0.178-0.256,0.318,0.021,0.505
			c0.22,0.006,0.355-0.362,0.523-0.334c0.148,0,0.155,0.251,0.416,0.34c0.36-0.038,0.304-0.683,0.884-0.175
			c0.179,0.154,0.355-0.217,0.58-0.171c0.178,0.04,0.486-0.025,0.617,0.125c0.129,0.151-0.214,0.501,0.217,0.55
			c0.232,0.012,0.202-0.337,0.379-0.509c0.108-0.106,0.199-0.098,0.271-0.258c0.046-0.19-0.726-0.578,0.274-0.877
			c0.893-0.033,0.157,0.461,0.654,0.753c0.413,0.066,0.942-0.416,0.957,0.203c0.008,0.251-0.697,0.172-0.594,0.514
			c0.27,0.269,0.767-0.353,1.583-0.446c0.251-0.028,0.447-0.083,0.509,0.053c0.022,0.292-0.304,0.244-0.278,0.478
			c0.094,0.171,0.368,0.036,0.567,0.04c0.175-0.019,0.184-0.133,0.202-0.309c-0.086-0.224,0.817,0.105,1.861,0.012
			c0.251-0.022,0.418,0.157,0.589,0.169c0.582,0.065,1.292-0.425,1.674,0.06c0.137,0.221,2.449-0.06,2.438,0.293
			c0.167,0.376-0.884,0.264-1.291,0.402c-0.293,0.058-0.58,0.155-0.359,0.451c0.083,0.142,0.271,0.126,0.485,0.111
			c0.343-0.468,1.078-0.146,1.564-0.376c0.185-0.192,0.321-0.543,0.876-0.498c0.306-0.005,0.416,0.15,0.5,0.303
			c0.48,0.067,1.278-0.266,1.532,0.548c0.26-0.07,0.69-0.595,1.034,0.138c0.598-0.345,1.512-0.09,1.797,0.338
			c0.699,0.108,1.288-0.015,1.96,0.495c0.586-0.023,1.385-0.055,1.993,0.071c0.585-0.063,0.627,0.191,0.519,0.479
			c0.16,0.086,0.253,0.127,0.358,0.487c0.9,0.076,1.59-0.246,2.381,0.033c0.39,0.19,1.024,0.312,1.168,0.574
			c-0.019,0.152-1.162-0.223-1.074,0.065c0.034,0.132,0.721,0.231,1.024,0.536c0.362,0.179,0.225-0.038,0.602-0.07
			c0.088-0.008,0.249,0.131,0.396,0.136c0.201,0.008,0.395-0.105,0.462-0.05c0.112,0.091-0.086,0.276,0.185,0.438
			c0.185,0.115,0.471,0.001,0.669,0.152c0.122,0.092,0.267-0.029,0.363,0.056c0.1,0.083,0.124,0.296,0.234,0.329
			c0.275,0.163,0.578,0.077,0.908,0.151c0.548,0.124,1.151,0.384,1.593,0.842c0.504,0.113,0.723-0.213,1.151-0.057
			c0.242,0.088,0.329,0.457,0.811,0.761c0.261,0.164,0.617-0.069,1.019,0.022c0.592,0.135,1.103,0.121,1.119,0.04
			c0.07-0.366-0.78-0.501-1.26-0.377c-0.813,0.351-0.522-0.388-0.811-0.444c-0.78-0.151-1.214-0.433-1.015-1.134
			c0.116-0.155,0.406-0.113,0.563,0.335c0.04,0.117,0.373-0.011,0.475,0.065c0.18,0.141,0.21,0.42,0.413,0.525
			c0.205,0.107,0.391-0.146,0.562-0.04c0.289,0.184,0.602,0.195,0.695,0.101c0.132-0.27-0.263-0.72-1.05-0.723
			c-0.337-0.001-0.395-0.572-0.649-0.633c-0.507-0.122-1.017-0.089-1.147-0.124c-0.369-0.189-0.737-0.379-1.104-0.569
			c-0.17-0.116-0.35-0.157-0.466,0.036c0.023,0.335-0.273,0.322-0.557,0.283c-0.38-0.106-0.81-0.228-1.007-0.451
			c-0.108-0.123,0.233-0.495-0.235-0.549c-0.463-0.028-0.771,0.045-1.234-0.217c-0.401-0.529,0.584,0.079,0.527-0.359
			c0.205-0.303-3.538-0.554-3.115-1.126c0.375,0.058,0.724,0.089,1.096,0.147c0.219-0.112,0.141-0.363-0.152-0.449
			c-0.518-0.043-0.945-0.331-1.502-0.297c-0.575-0.033-0.896,0.424-1.538,0.379c-0.332-0.058-1.072-0.321-0.542-0.491
			c0.293-0.098,0.228-0.373-0.113-0.47c-0.117-0.015-0.413,0.092-0.547,0.004c-0.153-0.1-0.098-0.345-0.319-0.355
			c-0.189-0.007-0.403,0.339-0.575,0.275c-0.177-0.063-0.119-0.338-0.271-0.425c-0.109-0.063-0.271,0.006-0.413-0.006
			c-0.235-0.022-0.461-0.082-0.636-0.007c-0.797,0.343-1.438,0.002-2.245-0.106c-0.272-0.086-0.376-0.25-0.083-0.373
			c0.169,0.016,0.638,0.087,0.728-0.09c0.05-0.107-0.302-0.479-0.188-0.521c0.073-0.025,0.471,0.332,0.545,0.299
			c0.132-0.058,0.26-0.186,0.404-0.218c0.11-0.021,0.323,0.304,0.434,0.28c0.176-0.037,0.329-0.26,0.48-0.256
			c0.611,0.014,0.89,0.627,1.493,0.701c0.24,0.029,0.565-0.133,0.804-0.146c0.562-0.029,0.004,0.394,0.456,0.541
			c0.513,0.166,1.176-0.165,1.662-0.083c0.266,0.048-0.002,0.625,0.352,0.649c0.294,0.099,0.445-0.297,0.716-0.326
			c0.189-0.019,0.346,0.3,0.481,0.324c0.239,0.042,0.411-0.315,0.609-0.234c0.096,0.039,0.187,0.165,0.309,0.201
			s0.272-0.019,0.379,0.073c0.241,0.208-0.18,0.505,0.354,0.57c0.201,0.025,0.438-0.279,0.624-0.299
			c0.306-0.03,0.192,0.265,0.282,0.322c0.08,0.052,0.286-0.323,0.423-0.133c0.142,0.195-0.399,0.58-0.034,0.754
			c0.141,0.067,0.412-0.26,0.636-0.311c0.152-0.032,0.276,0.195,0.348,0.256c0.068,0.054,0.485,0.065,0.638,0.117
			c0.214,0.072,0.562,0.131,0.494,0.325c-0.044,0.122-0.877-0.028-1.138,0.026c-0.264,0.056,0.044,0.316,0.079,0.33
			c0.557,0.002,1.07,0.391,1.691,0.032c0.375-0.175,0.237,0.23,0.561,0.249c0.224,0.062,0.61-0.095,0.702,0.174
			c0.08,0.214-0.468,0.31-0.3,0.78c0.247,0.174,0.331-0.208,0.488-0.205c0.156,0.002,0.323,0.286,0.478,0.292
			c0.129,0.087,0.294,0.018,0.408,0.101c0.111,0.084,0.174,0.336,0.301,0.423c0.17,0.003,0.322-0.122,0.489-0.119
			c0.164,0.003,0.321,0.201,0.513,0.138c0.017-0.021,0.084-0.36-0.074-0.438c-0.147-0.075-0.515,0.113-0.722,0.008
			c-0.545-0.281-1.133-0.634-0.908-0.871c0.064-0.068,0.276-0.175,0.466-0.12c0.094,0.029,0.168,0.108,0.248,0.196
			c0.078,0.087,0.167,0.181,0.281,0.236c0.176,0.086,0.449-0.036,0.618,0.038c0.314,0.141,0.478,0.444,0.501,0.414
			c0.261,0.121,0.242-0.431,0.709,0.05c0.096,0.175,0.352,0.211,0.474,0.368c0.137,0.176,0.129,0.565,0.403,0.557
			c0.19-0.005-0.105-0.659,0.086-0.667c0.149-0.004,0.619,0.598,0.934,0.632c0.244,0.166,0.642-0.082,0.884,0.084
			c0.191,0.13,0.227,0.671,0.417,0.802c0.242,0.072,0.359-0.229,0.605-0.157c0.244,0.073,0.616,0.52,0.86,0.592
			c0.268,0.137,0.858,0.053,1.13,0.174c0.42,0.188,0.121,0.529,0.464,0.639c0.243,0.059,0.425-0.138,0.667-0.079
			C98.013,34.639,98.202,35.233,98.74,35.06 M50.97,25.417c0.46,0.036,0.685-0.506,1.039-0.274c0.275,0.147-0.028,0.276-0.111,0.451
			c-0.078,0.159-0.301,0.191-0.413,0.267C51.117,26.013,50.644,25.642,50.97,25.417z M59.083,26.024
			c0.555,0.128,0.894-0.579,1.389-0.251c0.274,0.146,0.274,0.346,0.187,0.52c-0.075,0.161-0.67,0.169-0.782,0.244
			c-0.253,0.058-0.245-0.099-0.427-0.106C59.003,26.412,58.878,26.165,59.083,26.024z M71.966,26.137
			c-0.101,0.28-0.188,0.524-0.58,0.577c-0.142,0.02-0.379-0.048-0.587-0.034c-0.374,0.023-0.69,0.121-0.78,0.04
			c-0.116-0.318,0.209-0.36,0.417-0.436c0.192-0.187,0.016-0.335,0.231-0.452c0.333-0.109,0.644-0.171,0.927-0.046
			C71.871,25.828,71.984,25.984,71.966,26.137z M60.067,23.6c0.09-0.266,0.419-0.356,0.882-0.315c0.334,0.07,0.636,0.284,0.55,0.483
			c-0.035,0.216-0.235,0.271-0.364,0.234c-0.172-0.04-0.229-0.21-0.4-0.234c-0.15,0.006-0.154,0.204-0.402,0.134
			C60.13,23.9,60.05,23.731,60.067,23.6z M64.964,23.853c0.032,0.173-0.216,0.089-0.287,0.214c-0.153,0.276-0.374,0.328-0.722,0.297
			c-0.333-0.069-0.531-0.275-0.482-0.422c0.04-0.217,0.238-0.281,0.368-0.243c0.345,0.022,0.299,0.229,0.469,0.251
			c0.148-0.006,0.197-0.415,0.444-0.344C64.956,23.608,64.983,23.722,64.964,23.853z M62.887,24.922
			c0.091-0.265,0.436-0.015,1.133-0.055c0.318-0.02,0.637-0.111,0.86-0.103c0.291,0.011,0.447,0.091,0.358,0.363
			c-0.103,0.173-0.601,0.268-0.73,0.233c-0.292-0.044-0.404-0.078-0.575-0.104c-0.15,0.006-0.677,0.104-0.924,0.034
			C62.806,25.29,62.837,25.022,62.887,24.922z M71.853,25.037c0.093-0.267,0.395-0.345,0.878-0.003
			c0.484,0.005,0.792,0.275,0.741,0.423c-0.039,0.217-0.173,0.214-0.305,0.178c-0.345-0.021-0.254-0.248-0.533-0.251
			c-0.147,0.006-0.282,0.155-0.528,0.087C71.902,25.468,71.835,25.167,71.853,25.037z M68.977,25.148
			c-0.223-0.011-0.131-0.224-0.224-0.322c-0.117-0.122-0.29-0.047-0.29-0.275c0.141-0.35,1.254-0.188,1.274,0.128
			c0.025,0.229-0.122,0.318-0.277,0.325C69.276,25.007,69.191,25.183,68.977,25.148z M67.461,25.493
			c-0.198-0.035-0.169-0.115-0.262-0.213c-0.118-0.123,0.054-0.304,0.224-0.405c0.338-0.1,0.631-0.027,0.658,0.17
			c0.027,0.088-0.029,0.287-0.208,0.329C67.694,25.417,67.677,25.527,67.461,25.493z"/>
	</defs>
	<linearGradient id="SVGID_2_" gradientUnits="userSpaceOnUse" x1="0.0669" y1="27.1719" x2="98.7607" y2="27.1719">
		<stop  offset="0" style="stop-color:#00A1DA"/>
		<stop  offset="0.1804" style="stop-color:#029CD7"/>
		<stop  offset="0.3991" style="stop-color:#068DCD"/>
		<stop  offset="0.6377" style="stop-color:#0E75BD"/>
		<stop  offset="0.8889" style="stop-color:#1953A6"/>
		<stop  offset="1" style="stop-color:#1E419B"/>
	</linearGradient>
	<use href="#SVGID_1_"  overflow="visible" fill-rule="evenodd" clip-rule="evenodd" fill="url(#SVGID_2_)"/>
	<clipPath id="SVGID_3_">
		<use href="#SVGID_1_"  overflow="visible"/>
	</clipPath>
	<g clip-path="url(#SVGID_3_)">
		<defs>
			<rect id="SVGID_4_" x="-0.194" y="19.167" width="99.03" height="16.16"/>
		</defs>
		<linearGradient id="SVGID_5_" gradientUnits="userSpaceOnUse" x1="-0.1943" y1="27.2461" x2="98.8359" y2="27.2461">
			<stop  offset="0" style="stop-color:#00A1DA"/>
			<stop  offset="0.1804" style="stop-color:#029CD7"/>
			<stop  offset="0.3991" style="stop-color:#068DCD"/>
			<stop  offset="0.6377" style="stop-color:#0E75BD"/>
			<stop  offset="0.8889" style="stop-color:#1953A6"/>
			<stop  offset="1" style="stop-color:#1E419B"/>
		</linearGradient>
		<use href="#SVGID_4_"  overflow="visible" fill="url(#SVGID_5_)"/>
		<clipPath id="SVGID_6_">
			<use href="#SVGID_4_"  overflow="visible"/>
		</clipPath>
		<linearGradient id="SVGID_7_" gradientUnits="userSpaceOnUse" x1="98.7891" y1="27.168" x2="98.7891" y2="27.168">
			<stop  offset="0" style="stop-color:#00A1DA"/>
			<stop  offset="0.1804" style="stop-color:#029CD7"/>
			<stop  offset="0.3991" style="stop-color:#068DCD"/>
			<stop  offset="0.6377" style="stop-color:#0E75BD"/>
			<stop  offset="0.8889" style="stop-color:#1953A6"/>
			<stop  offset="1" style="stop-color:#1E419B"/>
		</linearGradient>
		<polyline clip-path="url(#SVGID_6_)" fill="url(#SVGID_7_)" points="98.789,35.061 98.789,19.275 98.789,35.061 		"/>
	</g>
</g>
<path fill-rule="evenodd" clip-rule="evenodd" fill="#FFC20D" d="M48.941,0.069c4.442,0,8.065,3.73,8.065,8.306
	c0,4.575-3.623,8.304-8.065,8.304c-4.443,0-8.067-3.729-8.067-8.304C40.874,3.799,44.498,0.069,48.941,0.069"/>
<g>
	<defs>
		<rect id="SVGID_8_" x="18.024" y="35.703" width="62.014" height="14.47"/>
	</defs>
	<clipPath id="SVGID_9_">
		<use href="#SVGID_8_"  overflow="visible"/>
	</clipPath>
	<path clip-path="url(#SVGID_9_)" fill-rule="evenodd" clip-rule="evenodd" fill="#223F9A" d="M60.056,35.956
		c0.851,0,1.543,0.514,1.543,1.145c0,0.63-0.692,1.144-1.543,1.144c-0.849,0-1.54-0.514-1.54-1.144
		C58.516,36.47,59.207,35.956,60.056,35.956"/>
	<path clip-path="url(#SVGID_9_)" fill-rule="evenodd" clip-rule="evenodd" fill="#223F9A" d="M21.157,37.341
		c1.998-0.111,4.61,0.166,4.621,2.569c-0.011,2.697-2.648,2.832-4.621,2.783C21.157,40.932,21.157,39.101,21.157,37.341
		 M18.034,49.207c0-4.185,0-8.371,0-12.556c0.09-0.46,0.18-0.498,0.627-0.602c1.834,0,3.698-0.034,5.533-0.034
		c3.543,0.238,4.96,2.211,4.761,4.417c-0.181,1.985-1.989,3.482-4.956,3.656c-1.042,0-1.793,0.065-2.836,0.065
		c0,1.709,0,3.419,0,5.129c-0.068,0.224-0.231,0.351-0.524,0.381c-0.676,0-1.514,0-2.189,0
		C18.278,49.641,18.107,49.555,18.034,49.207z"/>
	<path clip-path="url(#SVGID_9_)" fill-rule="evenodd" clip-rule="evenodd" fill="#223F9A" d="M30.914,39.689h2.161
		c0.209,0,0.383,0.172,0.383,0.384v9.231c0,0.21-0.173,0.384-0.383,0.384h-2.161c-0.211,0-0.382-0.173-0.382-0.384v-9.231
		C30.531,39.862,30.702,39.689,30.914,39.689"/>
	<path clip-path="url(#SVGID_9_)" fill-rule="evenodd" clip-rule="evenodd" fill="#223F9A" d="M31.994,35.956
		c0.848,0,1.542,0.514,1.542,1.145c0,0.63-0.694,1.144-1.542,1.144c-0.851,0-1.542-0.514-1.542-1.144
		C30.452,36.47,31.143,35.956,31.994,35.956"/>
	<path clip-path="url(#SVGID_9_)" fill-rule="evenodd" clip-rule="evenodd" fill="#223F9A" d="M48.329,39.689h2.16
		c0.21,0,0.38,0.172,0.38,0.384v9.231c0,0.21-0.17,0.384-0.38,0.384h-2.16c-0.212,0-0.383-0.173-0.383-0.384v-9.231
		C47.945,39.862,48.116,39.689,48.329,39.689"/>
	<path clip-path="url(#SVGID_9_)" fill-rule="evenodd" clip-rule="evenodd" fill="#223F9A" d="M49.407,35.956
		c0.851,0,1.544,0.514,1.544,1.145c0,0.63-0.693,1.144-1.544,1.144c-0.848,0-1.543-0.514-1.543-1.144
		C47.864,36.47,48.559,35.956,49.407,35.956"/>
	<path clip-path="url(#SVGID_9_)" fill-rule="evenodd" clip-rule="evenodd" fill="#223F9A" d="M58.978,39.689h2.16
		c0.21,0,0.382,0.172,0.382,0.384v9.231c0,0.21-0.172,0.384-0.382,0.384h-2.16c-0.213,0-0.382-0.173-0.382-0.384v-9.231
		C58.596,39.862,58.765,39.689,58.978,39.689"/>
	<path clip-path="url(#SVGID_9_)" fill-rule="evenodd" clip-rule="evenodd" fill="#223F9A" d="M53.563,35.971h2.161
		c0.209,0,0.383,0.173,0.383,0.384v12.95c0,0.21-0.174,0.384-0.383,0.384h-2.161c-0.209,0-0.382-0.173-0.382-0.384v-12.95
		C53.182,36.144,53.354,35.971,53.563,35.971"/>
	<path clip-path="url(#SVGID_9_)" fill-rule="evenodd" clip-rule="evenodd" fill="#223F9A" d="M42.613,41.777
		c-1.713-1.146-4.381,0.097-4.395,2.931c0.014,4.048,3.44,4.411,4.395,3.173C42.613,45.875,42.613,43.787,42.613,41.777
		 M42.993,35.971h2.162c0.209,0,0.382,0.173,0.382,0.384v12.126c0,0.211-0.141,0.298-0.312,0.42
		c-0.649,0.465-1.52,0.715-2.447,0.931c-0.17,0.04-7.507,1.319-7.339-4.716c0.37-6.164,6.686-5.335,7.172-4.141v-4.62
		C42.611,36.144,42.784,35.971,42.993,35.971z"/>
	<path clip-path="url(#SVGID_9_)" fill-rule="evenodd" clip-rule="evenodd" fill="#223F9A" d="M64.461,36.996l2.146-1.103
		c0.237-0.125,0.396,0.116,0.396,0.316v3.479c0.657,0,1.313-0.001,1.969-0.001c0.073,0.009,0.112,0.048,0.119,0.127
		c0,0.234,0,0.469,0,0.704c0.004,0.086-0.05,0.128-0.119,0.127l-1.969,0.004c0,2.216,0,4.43,0,6.646
		c0.057,1.377,1.289,1.312,2.077,1.37c0.657,0.033,0.618,0.694-0.198,1.016c-0.898,0.354-2.618,0.44-3.868-0.432
		c-0.813-0.636-0.936-1.398-0.936-2.077v-6.523c-0.44-0.002-0.882-0.002-1.32-0.003c-0.077-0.006-0.116-0.05-0.121-0.115
		c0.004-0.25,0.005-0.499,0.009-0.748c0.006-0.067,0.053-0.113,0.119-0.111l1.313,0.015V37.38
		C64.079,37.168,64.275,37.093,64.461,36.996"/>
	<path clip-path="url(#SVGID_9_)" fill-rule="evenodd" clip-rule="evenodd" fill="#223F9A" d="M76.801,43.19
		c0.213-0.947-0.742-2.112-2.232-1.943c-1.71,0.206-2.162,1.718-2.066,2.414C73.821,43.535,75.48,43.317,76.801,43.19
		 M72.569,44.764c2.171-0.222,4.365-0.487,6.534-0.712c0.376-0.042,0.783-0.258,0.665-0.947c-0.198-1.825-2.128-3.421-4.504-3.314
		c-4.035,0.206-5.282,2.853-5.171,5.355c0.168,3.188,2.121,4.68,5.218,4.831c2.065,0.07,4.13-1.436,4.481-2.798
		c0.364-0.941-0.629-1.522-1.122-0.668C76.757,48.822,72.699,48.19,72.569,44.764z"/>
</g>
</svg>
